<svg width="108" height="108" viewBox="0 0 108 108" fill="none" xmlns="http://www.w3.org/2000/svg">
<g clip-path="url(#clip0_295_24373)">
<rect width="108" height="108" fill="#FFE5F9"/>
<rect width="108" height="108" fill="#5930F2"/>
<g clip-path="url(#clip1_295_24373)">
<path d="M52.0339 78C42.1665 78 34.052 71.0245 33.3262 62.2045C33.2685 61.5113 33.811 60.9153 34.4941 60.9153H40.0192C40.6094 60.9153 41.0966 61.3655 41.1795 61.9589C41.8023 66.4891 46.4334 70.0191 52.0339 70.0191C57.6344 70.0191 62.2654 66.4891 62.8883 61.9589C62.9712 61.3629 63.4584 60.9153 64.0486 60.9153H69.5738C70.2568 60.9153 70.7994 61.5087 70.7417 62.2045C70.0156 71.0245 61.9038 78 52.0339 78Z" fill="#F2CBCB"/>
<path d="M67.3125 30.1553L55.4559 37.1027C55.1002 37.3106 54.8813 37.6965 54.8813 38.1098V55.68C54.8813 56.3239 55.3987 56.8475 56.0404 56.8475H68.8123C69.4514 56.8475 69.9712 56.3263 69.9712 55.68V44.5637C69.9712 43.9198 70.4887 43.3962 71.1306 43.3962H73.819C74.4584 43.3962 74.9783 43.9173 74.9783 44.5637V55.68C74.9783 56.3239 75.4957 56.8475 76.1372 56.8475H79.7563C80.3954 56.8475 80.9152 56.3263 80.9152 55.68V38.1124C80.9152 37.6965 80.6964 37.3132 80.3409 37.1052L68.4841 30.1578C68.1232 29.9474 67.6782 29.9474 67.3199 30.1578L67.3125 30.1553ZM63.5419 49.9402H60.9826C60.3433 49.9402 59.8235 49.4191 59.8235 48.7727V44.5662C59.8235 43.9223 60.3408 43.3987 60.9826 43.3987H63.5419C64.1811 43.3987 64.701 43.9198 64.701 44.5662V48.7727C64.701 49.4166 64.1836 49.9402 63.5419 49.9402Z" fill="#F2CBCB"/>
<path d="M38.4312 30.1553L26.5746 37.1027C26.2189 37.3106 26 37.6965 26 38.1098V55.68C26 56.3239 26.5173 56.8475 27.1591 56.8475H39.931C40.5702 56.8475 41.0901 56.3263 41.0901 55.68V44.5637C41.0901 43.9198 41.6074 43.3962 42.2491 43.3962H44.9378C45.577 43.3962 46.0969 43.9173 46.0969 44.5637V55.68C46.0969 56.3239 46.6142 56.8475 47.2559 56.8475H50.8749C51.5141 56.8475 52.0339 56.3263 52.0339 55.68V38.1124C52.0339 37.6965 51.815 37.3132 51.4594 37.1052L39.6027 30.1578C39.2421 29.9474 38.7968 29.9474 38.4387 30.1578L38.4312 30.1553ZM34.6605 49.9402H32.1012C31.462 49.9402 30.9421 49.4191 30.9421 48.7727V44.5662C30.9421 43.9223 31.4595 43.3987 32.1012 43.3987H34.6605C35.2998 43.3987 35.8196 43.9198 35.8196 44.5662V48.7727C35.8196 49.4166 35.3023 49.9402 34.6605 49.9402Z" fill="#F2CBCB"/>
</g>
</g>
<defs>
<clipPath id="clip0_295_24373">
<rect width="108" height="108" fill="white"/>
</clipPath>
<clipPath id="clip1_295_24373">
<rect width="54.9153" height="48" fill="white" transform="translate(26 30)"/>
</clipPath>
</defs>
</svg>
